<svg xmlns="http://www.w3.org/2000/svg" viewBox="0 0 1376.82 764.25"><defs><style>.cls-1{fill:#1d1d1b;}.cls-2,.cls-5{font-size:200.69px;}.cls-2,.cls-6{font-family:Rockwell;}.cls-2{letter-spacing:0.04em;}.cls-3{letter-spacing:0.02em;}.cls-4{letter-spacing:0.04em;}.cls-5{font-family:CenturyGothic, Century Gothic;letter-spacing:0.01em;}.cls-6{letter-spacing:0.01em;}</style></defs><g id="Layer_2" data-name="Layer 2"><g id="Layer_2-2" data-name="Layer 2"><path class="cls-1" d="M287.17,518.83c-4.72-1.18-60.9-16.18-78.23-67.87-16.66-49.7-1.45-99.54,32.21-111.59,3.42-1.22,16.67-9,55.22-10.35,55.55-2,56.49-8.44,61-11.51,6.33-4.32,17.64-18.6,35.67-58.67,4-8.94,9.84-22.14,23-27.61,6.21-2.58,11.77-2.49,16.11-2.3,26.21,1.17,44.25,7.95,61,11.51,12.75,2.71,26.91,2.57,55.22,2.3,0,0,28.32-.28,57.52-3.46C647,234.8,836.83,179,1091.3,87.43L1148.82,84c2.58,4.59,14.21,24.12,39.11,32.21a70.36,70.36,0,0,0,46-1.15l-49.47-87.43L1063.69,58.67,694.41,174.86,528.75,205.92a115.14,115.14,0,0,1,0-33.36c2.65-17.84,7.81-22.74,6.9-36.81a60.12,60.12,0,0,0-11.5-31.06c-.84-1.16-11-14.85-26.46-20.71-28.35-10.77-60.59,10.14-84,25.31-34.91,22.64-36.22,35.94-66.72,49.47a153.69,153.69,0,0,1-54.07,12.65c-52.69,3.33-59.76-22-119.64-26.46-24.45-1.84-47.74,2.61-94.33,11.51-12.43,2.37-25.3,5.2-38,14.95-14.54,11.19-20.61,25.18-26.46,39.11S-7.88,263.9,4.44,309.46c3.1,11.48-1.72,16.7,16.11,56.37,20.94,46.6,24.21,40,34.24,58.67,17.13,31.91,38,51.26,61,72.47,31.72,29.35,47.58,44,70.17,49.47C230.78,557.25,272.12,530,287.17,518.83Z"/><circle class="cls-1" cx="1065.15" cy="38.25" r="17.26"/><circle class="cls-1" cx="1105.04" cy="27.61" r="17.26"/><circle class="cls-1" cx="1143.77" cy="17.26" r="17.26"/><text class="cls-2" transform="translate(298.54 501.92)">GUI<tspan class="cls-3" x="384.22" y="0">T</tspan><tspan class="cls-4" x="502.5" y="0">AR</tspan></text><text class="cls-5" transform="translate(469.43 684.19)">SCHOOL<tspan class="cls-6" x="855.01" y="0"> </tspan></text></g></g></svg>